<mxfile host="65bd71144e">
    <diagram id="0CjMGT7kijzf6ad6cZ4N" name="PÃ¡gina-1">
        <mxGraphModel dx="1400" dy="553" grid="0" gridSize="10" guides="1" tooltips="1" connect="1" arrows="1" fold="1" page="0" pageScale="1" pageWidth="827" pageHeight="1169" background="none" math="0" shadow="0">
            <root>
                <mxCell id="0"/>
                <mxCell id="1" parent="0"/>
                <mxCell id="141" value="" style="shape=image;verticalLabelPosition=bottom;labelBackgroundColor=default;verticalAlign=top;aspect=fixed;imageAspect=0;image=data:image/png,iVBORw0KGgoAAAANSUhEUgAAAKYAAAA4CAIAAAD4hhQTAAAIL0lEQVR4Ae2cfUhTaxzHz+ZedG/Otfl2oBc1rNw/mqWuIGtlE2clhJlRaYkJIoQasUhL7Y9sCVGBJBolpWYKixEGZrgyDB2+pNl8m7lUNjXbsel0Onehc++5u95rV23Z9DnPX7+z8zzPeX7fz/PzeUXIgifAFIAA8xd314IjB64T4Mhx5MApAJzDeJTjyIFTADiH8SjHkQOnAHAO2zjKzWazyWSyWCxms9lisUxPT8/OzgInqn07/LPIzWazRqOpqqq6cePGiRMntm/fLhAIIiIi9u/fHxgYuG/fvpycnMbGxtHRUaPRaN9SgNK6n0Le09NTUFCwc+dODocDLZCIRCIMw0KhsLKyUqfTgaKrHfu5fORdXV0XLlzYsGHDAqz//plAILBYrC1btuTl5Wk0GjtWA4imLR+5SqWSSCQwDP/N9oeWi4tLZGRkQ0PDzMwMENLaq5PLRz4xMaFUKhMSEths9g9Z//mSTCYHBwefP3/+0aNHKpXKXgVZ++1aPvK5ubnR0dHW1tbc3Ny9e/e6uroyGIz/ZM9ms+l0upOTE/Z28+bNsbGxeXl5CoViYmJi7ctsTx4uH7m1FyMjI52dnfX19U+ePMnLy7t06VJqaqpUKn369KlGo/n06VNra2thYeHRo0c9PDxYLJaDgwOKn8ViCYXCixcvlpeXq9Vq6zpx+xcpYBvki2wcgiDd3d0vX75MT0/n8/nr1q1zdHTEQt/Pzy8uLu7OnTvv3r3DV/OLlHQZ2VYUOdY+k8k0ODjY3Nx89+5dsVjs7u7OZDIJBAKKn8vlhoeHZ2ZmPnv2bHBwECuFGzZR4Pcgt2762NiYSqWSy+XJycne3t4uLi4UCgUL/YCAgHPnzhUUFDQ1NVmXwu1lK/D7kWNNn5qa0mg0SqVSKpUKhUJXV1c6nY6xh2H48OHDOTk5VVVVIyMjWCncWKoCdoTcuukjIyMdHR3l5eVnzpyBYZjNZpPJZBQ/iUQKDg5OSUl58OBBe3u7dall28bvyWKxgLB8sFPkGLyJiYm+vr6Ghobs7GyBQMDj8Wg0Ghb6mzZtio6Ozs3NrampGR8fx0otZJhMJr1e39/f39zcXFZWlpGRkZSUFBcXt2PHDj6fHxISUlRUNDQ0tFDxtfG7vSO3Vlmn07W1tRUXF8fGxnp6ejo7O5NIJBQ/jUbbs2dPWlpaSUlJd3c3giCfP3/u6up6/fp1ZWVlRkZGWlpaYmIin8/ncDgUCgVbJWK9B4IgOp0eEBBw9erVnp4e6++uMXs1IcekHx8f7+3tVSgUEonE39+fy+Va7/PweDwmk2k9EGAjAroooFKpjo6OvL8StlIgEolRUVE1NTVTU1PYt9aesSqRYxhmZ2eHhoZaWlru3bsXFRWFLvasI5hMJgcFBcXHx1++fLm0tLS2travr6+9vV2tVut0uuzsbC8vL7RDODg4wDCcmpra0tIyNzeHfWLtGasbuTUPvV7f09NTV1dXVlb2+PHjioqKV69e9ff3W+fBbARBSkpKdu/ezWQyIQhCz/oSExM7OzvRKx5YzrVnrB3ki2czMzOj0+mysrJ8fX3REGcymeHh4YAs/UFEbjKZ6urqjh07xuVyUeTbtm27du2aVqtF728tvvesxpzAITebzXq9vrCwMCQkhEgkQhDk7Ox84MABuVyOIMhqRLjUNgOH3GAwVFdXBwcHo1t7BALh4MGDMplsoSHcaDSOj4+/ffu2sbGxq6tLq9Wu9iMfsJBPTU0pFIqIiAj07zkEQQwGQywW19bWTk5OIggyMDDw9etXdBqYn58vFou3bt3KZrOJRCKNRuNyuf7+/hKJRKFQ9Pb2LmbzZ6khuAL5wUKuVqulUqmPjw+GnMvlhoaGBgYGhoSErF+/nsPhMBgM0veE5YEgyMnJiUwm02g0KpVKIpGcnZ09PT1jY2OLi4vb2tpW1zVOgJDPzMw8fPhQIBBYs5xnk8lkOp3u6+u7a9eukydPJiQkZGZmVlRUNDc39/b2KpXKW7duiUQiNzc3BoNBIBBoNBqPxxMIBNnZ2Q0NDX19ffa/Sw8KcrPZPDAwUFRUdPz4cRiGiUQij8fz8PDw8/MTiUTx8fHp6enPnz9Hz2kMBsMPbt1/+fLl48ePMpksKSlp48aN6GkvmUxms9kwDJ89e7a8vLyjo8Nuj/tAQW49Rg4NDY2Ojur1egRBfmajzWg09vf3NzY2Xr9+PTQ0FDvtpdPprq6uQqFQKpUqlUqNRvPvHVyz2fy7poEgIrfGbyt7eHj4w4cPpaWlp0+fRk97SSQShUJxcXHx9vZOTk6Wy+UqlWpsbGx6elqr1WZlZYnF4pSUlDdv3oyNjf1Mz1uqCzjypSr2P/kNBoNara6vr79y5UpQUBB65EMgEJhMppubW1hY2JEjR3x8fKhUKgRBbDZbIBAUFRVptdr/qdd2r3HkttPynzXNzc1ptdr379/fv38/Ojra3d0dxTxvwshiscLCwm7fvt3e3r4ye3848n+CsvUTets/Pz+fz+dbX+6wBk8kEj09PaOjo2Uy2fT0tK2bML8+HPl8RWz4PDk5WV1dHRkZCcMwhUL5zyhH2RMIBA6HExMTU1tb+6undThyGyKeX5XJZEIQZHh4WKVSNTU1vXjxoqysrKKi4ubNmwkJCSkpKadOnTp06FBMTExYWJhIJPLy8hIKhXK5/Jcu7nHk8zmtwDM2P5+3sf/t2zej0YhH+QogAOsTeJSDxdtiwf+hJ3DEceQ4cvAUAM5jfCzHkQOnAHAO41GOIwdOAeAcxqMcRw6cAsA5jEc5jhw4BYBz+A88fruGzKXKCQAAAABJRU5ErkJggg==;rotation=0;" vertex="1" parent="1">
                    <mxGeometry x="879" y="245.61" width="96" height="32.39" as="geometry"/>
                </mxCell>
                <mxCell id="139" value="" style="shape=image;verticalLabelPosition=bottom;labelBackgroundColor=default;verticalAlign=top;aspect=fixed;imageAspect=0;image=data:image/png,iVBORw0KGgoAAAANSUhEUgAAAKYAAAA4CAIAAAD4hhQTAAAIL0lEQVR4Ae2cfUhTaxzHz+ZedG/Otfl2oBc1rNw/mqWuIGtlE2clhJlRaYkJIoQasUhL7Y9sCVGBJBolpWYKixEGZrgyDB2+pNl8m7lUNjXbsel0Onehc++5u95rV23Z9DnPX7+z8zzPeX7fz/PzeUXIgifAFIAA8xd314IjB64T4Mhx5MApAJzDeJTjyIFTADiH8SjHkQOnAHAO2zjKzWazyWSyWCxms9lisUxPT8/OzgInqn07/LPIzWazRqOpqqq6cePGiRMntm/fLhAIIiIi9u/fHxgYuG/fvpycnMbGxtHRUaPRaN9SgNK6n0Le09NTUFCwc+dODocDLZCIRCIMw0KhsLKyUqfTgaKrHfu5fORdXV0XLlzYsGHDAqz//plAILBYrC1btuTl5Wk0GjtWA4imLR+5SqWSSCQwDP/N9oeWi4tLZGRkQ0PDzMwMENLaq5PLRz4xMaFUKhMSEths9g9Z//mSTCYHBwefP3/+0aNHKpXKXgVZ++1aPvK5ubnR0dHW1tbc3Ny9e/e6uroyGIz/ZM9ms+l0upOTE/Z28+bNsbGxeXl5CoViYmJi7ctsTx4uH7m1FyMjI52dnfX19U+ePMnLy7t06VJqaqpUKn369KlGo/n06VNra2thYeHRo0c9PDxYLJaDgwOKn8ViCYXCixcvlpeXq9Vq6zpx+xcpYBvki2wcgiDd3d0vX75MT0/n8/nr1q1zdHTEQt/Pzy8uLu7OnTvv3r3DV/OLlHQZ2VYUOdY+k8k0ODjY3Nx89+5dsVjs7u7OZDIJBAKKn8vlhoeHZ2ZmPnv2bHBwECuFGzZR4Pcgt2762NiYSqWSy+XJycne3t4uLi4UCgUL/YCAgHPnzhUUFDQ1NVmXwu1lK/D7kWNNn5qa0mg0SqVSKpUKhUJXV1c6nY6xh2H48OHDOTk5VVVVIyMjWCncWKoCdoTcuukjIyMdHR3l5eVnzpyBYZjNZpPJZBQ/iUQKDg5OSUl58OBBe3u7dall28bvyWKxgLB8sFPkGLyJiYm+vr6Ghobs7GyBQMDj8Wg0Ghb6mzZtio6Ozs3NrampGR8fx0otZJhMJr1e39/f39zcXFZWlpGRkZSUFBcXt2PHDj6fHxISUlRUNDQ0tFDxtfG7vSO3Vlmn07W1tRUXF8fGxnp6ejo7O5NIJBQ/jUbbs2dPWlpaSUlJd3c3giCfP3/u6up6/fp1ZWVlRkZGWlpaYmIin8/ncDgUCgVbJWK9B4IgOp0eEBBw9erVnp4e6++uMXs1IcekHx8f7+3tVSgUEonE39+fy+Va7/PweDwmk2k9EGAjAroooFKpjo6OvL8StlIgEolRUVE1NTVTU1PYt9aesSqRYxhmZ2eHhoZaWlru3bsXFRWFLvasI5hMJgcFBcXHx1++fLm0tLS2travr6+9vV2tVut0uuzsbC8vL7RDODg4wDCcmpra0tIyNzeHfWLtGasbuTUPvV7f09NTV1dXVlb2+PHjioqKV69e9ff3W+fBbARBSkpKdu/ezWQyIQhCz/oSExM7OzvRKx5YzrVnrB3ki2czMzOj0+mysrJ8fX3REGcymeHh4YAs/UFEbjKZ6urqjh07xuVyUeTbtm27du2aVqtF728tvvesxpzAITebzXq9vrCwMCQkhEgkQhDk7Ox84MABuVyOIMhqRLjUNgOH3GAwVFdXBwcHo1t7BALh4MGDMplsoSHcaDSOj4+/ffu2sbGxq6tLq9Wu9iMfsJBPTU0pFIqIiAj07zkEQQwGQywW19bWTk5OIggyMDDw9etXdBqYn58vFou3bt3KZrOJRCKNRuNyuf7+/hKJRKFQ9Pb2LmbzZ6khuAL5wUKuVqulUqmPjw+GnMvlhoaGBgYGhoSErF+/nsPhMBgM0veE5YEgyMnJiUwm02g0KpVKIpGcnZ09PT1jY2OLi4vb2tpW1zVOgJDPzMw8fPhQIBBYs5xnk8lkOp3u6+u7a9eukydPJiQkZGZmVlRUNDc39/b2KpXKW7duiUQiNzc3BoNBIBBoNBqPxxMIBNnZ2Q0NDX19ffa/Sw8KcrPZPDAwUFRUdPz4cRiGiUQij8fz8PDw8/MTiUTx8fHp6enPnz9Hz2kMBsMPbt1/+fLl48ePMpksKSlp48aN6GkvmUxms9kwDJ89e7a8vLyjo8Nuj/tAQW49Rg4NDY2Ojur1egRBfmajzWg09vf3NzY2Xr9+PTQ0FDvtpdPprq6uQqFQKpUqlUqNRvPvHVyz2fy7poEgIrfGbyt7eHj4w4cPpaWlp0+fRk97SSQShUJxcXHx9vZOTk6Wy+UqlWpsbGx6elqr1WZlZYnF4pSUlDdv3oyNjf1Mz1uqCzjypSr2P/kNBoNara6vr79y5UpQUBB65EMgEJhMppubW1hY2JEjR3x8fKhUKgRBbDZbIBAUFRVptdr/qdd2r3HkttPynzXNzc1ptdr379/fv38/Ojra3d0dxTxvwshiscLCwm7fvt3e3r4ye3848n+CsvUTets/Pz+fz+dbX+6wBk8kEj09PaOjo2Uy2fT0tK2bML8+HPl8RWz4PDk5WV1dHRkZCcMwhUL5zyhH2RMIBA6HExMTU1tb+6undThyGyKeX5XJZEIQZHh4WKVSNTU1vXjxoqysrKKi4ubNmwkJCSkpKadOnTp06FBMTExYWJhIJPLy8hIKhXK5/Jcu7nHk8zmtwDM2P5+3sf/t2zej0YhH+QogAOsTeJSDxdtiwf+hJ3DEceQ4cvAUAM5jfCzHkQOnAHAO41GOIwdOAeAcxqMcRw6cAsA5jEc5jhw4BYBz+A88fruGzKXKCQAAAABJRU5ErkJggg==;rotation=0;" vertex="1" parent="1">
                    <mxGeometry x="466" y="246.81" width="96" height="32.39" as="geometry"/>
                </mxCell>
                <mxCell id="137" value="" style="shape=image;verticalLabelPosition=bottom;labelBackgroundColor=default;verticalAlign=top;aspect=fixed;imageAspect=0;image=data:image/png,iVBORw0KGgoAAAANSUhEUgAAAKYAAAA4CAIAAAD4hhQTAAAIL0lEQVR4Ae2cfUhTaxzHz+ZedG/Otfl2oBc1rNw/mqWuIGtlE2clhJlRaYkJIoQasUhL7Y9sCVGBJBolpWYKixEGZrgyDB2+pNl8m7lUNjXbsel0Onehc++5u95rV23Z9DnPX7+z8zzPeX7fz/PzeUXIgifAFIAA8xd314IjB64T4Mhx5MApAJzDeJTjyIFTADiH8SjHkQOnAHAO2zjKzWazyWSyWCxms9lisUxPT8/OzgInqn07/LPIzWazRqOpqqq6cePGiRMntm/fLhAIIiIi9u/fHxgYuG/fvpycnMbGxtHRUaPRaN9SgNK6n0Le09NTUFCwc+dODocDLZCIRCIMw0KhsLKyUqfTgaKrHfu5fORdXV0XLlzYsGHDAqz//plAILBYrC1btuTl5Wk0GjtWA4imLR+5SqWSSCQwDP/N9oeWi4tLZGRkQ0PDzMwMENLaq5PLRz4xMaFUKhMSEths9g9Z//mSTCYHBwefP3/+0aNHKpXKXgVZ++1aPvK5ubnR0dHW1tbc3Ny9e/e6uroyGIz/ZM9ms+l0upOTE/Z28+bNsbGxeXl5CoViYmJi7ctsTx4uH7m1FyMjI52dnfX19U+ePMnLy7t06VJqaqpUKn369KlGo/n06VNra2thYeHRo0c9PDxYLJaDgwOKn8ViCYXCixcvlpeXq9Vq6zpx+xcpYBvki2wcgiDd3d0vX75MT0/n8/nr1q1zdHTEQt/Pzy8uLu7OnTvv3r3DV/OLlHQZ2VYUOdY+k8k0ODjY3Nx89+5dsVjs7u7OZDIJBAKKn8vlhoeHZ2ZmPnv2bHBwECuFGzZR4Pcgt2762NiYSqWSy+XJycne3t4uLi4UCgUL/YCAgHPnzhUUFDQ1NVmXwu1lK/D7kWNNn5qa0mg0SqVSKpUKhUJXV1c6nY6xh2H48OHDOTk5VVVVIyMjWCncWKoCdoTcuukjIyMdHR3l5eVnzpyBYZjNZpPJZBQ/iUQKDg5OSUl58OBBe3u7dall28bvyWKxgLB8sFPkGLyJiYm+vr6Ghobs7GyBQMDj8Wg0Ghb6mzZtio6Ozs3NrampGR8fx0otZJhMJr1e39/f39zcXFZWlpGRkZSUFBcXt2PHDj6fHxISUlRUNDQ0tFDxtfG7vSO3Vlmn07W1tRUXF8fGxnp6ejo7O5NIJBQ/jUbbs2dPWlpaSUlJd3c3giCfP3/u6up6/fp1ZWVlRkZGWlpaYmIin8/ncDgUCgVbJWK9B4IgOp0eEBBw9erVnp4e6++uMXs1IcekHx8f7+3tVSgUEonE39+fy+Va7/PweDwmk2k9EGAjAroooFKpjo6OvL8StlIgEolRUVE1NTVTU1PYt9aesSqRYxhmZ2eHhoZaWlru3bsXFRWFLvasI5hMJgcFBcXHx1++fLm0tLS2travr6+9vV2tVut0uuzsbC8vL7RDODg4wDCcmpra0tIyNzeHfWLtGasbuTUPvV7f09NTV1dXVlb2+PHjioqKV69e9ff3W+fBbARBSkpKdu/ezWQyIQhCz/oSExM7OzvRKx5YzrVnrB3ki2czMzOj0+mysrJ8fX3REGcymeHh4YAs/UFEbjKZ6urqjh07xuVyUeTbtm27du2aVqtF728tvvesxpzAITebzXq9vrCwMCQkhEgkQhDk7Ox84MABuVyOIMhqRLjUNgOH3GAwVFdXBwcHo1t7BALh4MGDMplsoSHcaDSOj4+/ffu2sbGxq6tLq9Wu9iMfsJBPTU0pFIqIiAj07zkEQQwGQywW19bWTk5OIggyMDDw9etXdBqYn58vFou3bt3KZrOJRCKNRuNyuf7+/hKJRKFQ9Pb2LmbzZ6khuAL5wUKuVqulUqmPjw+GnMvlhoaGBgYGhoSErF+/nsPhMBgM0veE5YEgyMnJiUwm02g0KpVKIpGcnZ09PT1jY2OLi4vb2tpW1zVOgJDPzMw8fPhQIBBYs5xnk8lkOp3u6+u7a9eukydPJiQkZGZmVlRUNDc39/b2KpXKW7duiUQiNzc3BoNBIBBoNBqPxxMIBNnZ2Q0NDX19ffa/Sw8KcrPZPDAwUFRUdPz4cRiGiUQij8fz8PDw8/MTiUTx8fHp6enPnz9Hz2kMBsMPbt1/+fLl48ePMpksKSlp48aN6GkvmUxms9kwDJ89e7a8vLyjo8Nuj/tAQW49Rg4NDY2Ojur1egRBfmajzWg09vf3NzY2Xr9+PTQ0FDvtpdPprq6uQqFQKpUqlUqNRvPvHVyz2fy7poEgIrfGbyt7eHj4w4cPpaWlp0+fRk97SSQShUJxcXHx9vZOTk6Wy+UqlWpsbGx6elqr1WZlZYnF4pSUlDdv3oyNjf1Mz1uqCzjypSr2P/kNBoNara6vr79y5UpQUBB65EMgEJhMppubW1hY2JEjR3x8fKhUKgRBbDZbIBAUFRVptdr/qdd2r3HkttPynzXNzc1ptdr379/fv38/Ojra3d0dxTxvwshiscLCwm7fvt3e3r4ye3848n+CsvUTets/Pz+fz+dbX+6wBk8kEj09PaOjo2Uy2fT0tK2bML8+HPl8RWz4PDk5WV1dHRkZCcMwhUL5zyhH2RMIBA6HExMTU1tb+6undThyGyKeX5XJZEIQZHh4WKVSNTU1vXjxoqysrKKi4ubNmwkJCSkpKadOnTp06FBMTExYWJhIJPLy8hIKhXK5/Jcu7nHk8zmtwDM2P5+3sf/t2zej0YhH+QogAOsTeJSDxdtiwf+hJ3DEceQ4cvAUAM5jfCzHkQOnAHAO41GOIwdOAeAcxqMcRw6cAsA5jEc5jhw4BYBz+A88fruGzKXKCQAAAABJRU5ErkJggg==;rotation=0;" vertex="1" parent="1">
                    <mxGeometry x="63" y="259" width="96" height="32.39" as="geometry"/>
                </mxCell>
                <mxCell id="3" value="" style="shape=image;verticalLabelPosition=bottom;labelBackgroundColor=default;verticalAlign=top;aspect=fixed;imageAspect=0;image=data:image/png,iVBORw0KGgoAAAANSUhEUgAAAKYAAAA4CAIAAAD4hhQTAAAIL0lEQVR4Ae2cfUhTaxzHz+ZedG/Otfl2oBc1rNw/mqWuIGtlE2clhJlRaYkJIoQasUhL7Y9sCVGBJBolpWYKixEGZrgyDB2+pNl8m7lUNjXbsel0Onehc++5u95rV23Z9DnPX7+z8zzPeX7fz/PzeUXIgifAFIAA8xd314IjB64T4Mhx5MApAJzDeJTjyIFTADiH8SjHkQOnAHAO2zjKzWazyWSyWCxms9lisUxPT8/OzgInqn07/LPIzWazRqOpqqq6cePGiRMntm/fLhAIIiIi9u/fHxgYuG/fvpycnMbGxtHRUaPRaN9SgNK6n0Le09NTUFCwc+dODocDLZCIRCIMw0KhsLKyUqfTgaKrHfu5fORdXV0XLlzYsGHDAqz//plAILBYrC1btuTl5Wk0GjtWA4imLR+5SqWSSCQwDP/N9oeWi4tLZGRkQ0PDzMwMENLaq5PLRz4xMaFUKhMSEths9g9Z//mSTCYHBwefP3/+0aNHKpXKXgVZ++1aPvK5ubnR0dHW1tbc3Ny9e/e6uroyGIz/ZM9ms+l0upOTE/Z28+bNsbGxeXl5CoViYmJi7ctsTx4uH7m1FyMjI52dnfX19U+ePMnLy7t06VJqaqpUKn369KlGo/n06VNra2thYeHRo0c9PDxYLJaDgwOKn8ViCYXCixcvlpeXq9Vq6zpx+xcpYBvki2wcgiDd3d0vX75MT0/n8/nr1q1zdHTEQt/Pzy8uLu7OnTvv3r3DV/OLlHQZ2VYUOdY+k8k0ODjY3Nx89+5dsVjs7u7OZDIJBAKKn8vlhoeHZ2ZmPnv2bHBwECuFGzZR4Pcgt2762NiYSqWSy+XJycne3t4uLi4UCgUL/YCAgHPnzhUUFDQ1NVmXwu1lK/D7kWNNn5qa0mg0SqVSKpUKhUJXV1c6nY6xh2H48OHDOTk5VVVVIyMjWCncWKoCdoTcuukjIyMdHR3l5eVnzpyBYZjNZpPJZBQ/iUQKDg5OSUl58OBBe3u7dall28bvyWKxgLB8sFPkGLyJiYm+vr6Ghobs7GyBQMDj8Wg0Ghb6mzZtio6Ozs3NrampGR8fx0otZJhMJr1e39/f39zcXFZWlpGRkZSUFBcXt2PHDj6fHxISUlRUNDQ0tFDxtfG7vSO3Vlmn07W1tRUXF8fGxnp6ejo7O5NIJBQ/jUbbs2dPWlpaSUlJd3c3giCfP3/u6up6/fp1ZWVlRkZGWlpaYmIin8/ncDgUCgVbJWK9B4IgOp0eEBBw9erVnp4e6++uMXs1IcekHx8f7+3tVSgUEonE39+fy+Va7/PweDwmk2k9EGAjAroooFKpjo6OvL8StlIgEolRUVE1NTVTU1PYt9aesSqRYxhmZ2eHhoZaWlru3bsXFRWFLvasI5hMJgcFBcXHx1++fLm0tLS2travr6+9vV2tVut0uuzsbC8vL7RDODg4wDCcmpra0tIyNzeHfWLtGasbuTUPvV7f09NTV1dXVlb2+PHjioqKV69e9ff3W+fBbARBSkpKdu/ezWQyIQhCz/oSExM7OzvRKx5YzrVnrB3ki2czMzOj0+mysrJ8fX3REGcymeHh4YAs/UFEbjKZ6urqjh07xuVyUeTbtm27du2aVqtF728tvvesxpzAITebzXq9vrCwMCQkhEgkQhDk7Ox84MABuVyOIMhqRLjUNgOH3GAwVFdXBwcHo1t7BALh4MGDMplsoSHcaDSOj4+/ffu2sbGxq6tLq9Wu9iMfsJBPTU0pFIqIiAj07zkEQQwGQywW19bWTk5OIggyMDDw9etXdBqYn58vFou3bt3KZrOJRCKNRuNyuf7+/hKJRKFQ9Pb2LmbzZ6khuAL5wUKuVqulUqmPjw+GnMvlhoaGBgYGhoSErF+/nsPhMBgM0veE5YEgyMnJiUwm02g0KpVKIpGcnZ09PT1jY2OLi4vb2tpW1zVOgJDPzMw8fPhQIBBYs5xnk8lkOp3u6+u7a9eukydPJiQkZGZmVlRUNDc39/b2KpXKW7duiUQiNzc3BoNBIBBoNBqPxxMIBNnZ2Q0NDX19ffa/Sw8KcrPZPDAwUFRUdPz4cRiGiUQij8fz8PDw8/MTiUTx8fHp6enPnz9Hz2kMBsMPbt1/+fLl48ePMpksKSlp48aN6GkvmUxms9kwDJ89e7a8vLyjo8Nuj/tAQW49Rg4NDY2Ojur1egRBfmajzWg09vf3NzY2Xr9+PTQ0FDvtpdPprq6uQqFQKpUqlUqNRvPvHVyz2fy7poEgIrfGbyt7eHj4w4cPpaWlp0+fRk97SSQShUJxcXHx9vZOTk6Wy+UqlWpsbGx6elqr1WZlZYnF4pSUlDdv3oyNjf1Mz1uqCzjypSr2P/kNBoNara6vr79y5UpQUBB65EMgEJhMppubW1hY2JEjR3x8fKhUKgRBbDZbIBAUFRVptdr/qdd2r3HkttPynzXNzc1ptdr379/fv38/Ojra3d0dxTxvwshiscLCwm7fvt3e3r4ye3848n+CsvUTets/Pz+fz+dbX+6wBk8kEj09PaOjo2Uy2fT0tK2bML8+HPl8RWz4PDk5WV1dHRkZCcMwhUL5zyhH2RMIBA6HExMTU1tb+6undThyGyKeX5XJZEIQZHh4WKVSNTU1vXjxoqysrKKi4ubNmwkJCSkpKadOnTp06FBMTExYWJhIJPLy8hIKhXK5/Jcu7nHk8zmtwDM2P5+3sf/t2zej0YhH+QogAOsTeJSDxdtiwf+hJ3DEceQ4cvAUAM5jfCzHkQOnAHAO41GOIwdOAeAcxqMcRw6cAsA5jEc5jhw4BYBz+A88fruGzKXKCQAAAABJRU5ErkJggg==;rotation=0;" vertex="1" parent="1">
                    <mxGeometry x="58" y="167" width="96" height="32.39" as="geometry"/>
                </mxCell>
                <mxCell id="5" value="((A B) (C D) (E F))" style="text;html=1;align=center;verticalAlign=middle;resizable=0;points=[];autosize=1;strokeColor=none;fillColor=none;rounded=0;fontStyle=1" vertex="1" parent="1">
                    <mxGeometry x="141" y="102" width="115" height="26" as="geometry"/>
                </mxCell>
                <mxCell id="6" value="" style="rounded=0;whiteSpace=wrap;html=1;" vertex="1" parent="1">
                    <mxGeometry x="143" y="184" width="70" height="40" as="geometry"/>
                </mxCell>
                <mxCell id="8" value="" style="edgeStyle=none;html=1;rounded=0;" edge="1" parent="1" source="9">
                    <mxGeometry relative="1" as="geometry">
                        <mxPoint x="178" y="274" as="targetPoint"/>
                    </mxGeometry>
                </mxCell>
                <mxCell id="9" value="" style="ellipse;whiteSpace=wrap;html=1;aspect=fixed;fillColor=#000000;rounded=0;" vertex="1" parent="1">
                    <mxGeometry x="168" y="194" width="20" height="20" as="geometry"/>
                </mxCell>
                <mxCell id="10" value="" style="rounded=0;whiteSpace=wrap;html=1;" vertex="1" parent="1">
                    <mxGeometry x="213" y="184" width="70" height="40" as="geometry"/>
                </mxCell>
                <mxCell id="11" value="" style="edgeStyle=none;html=1;rounded=0;entryX=-0.1;entryY=0.5;entryDx=0;entryDy=0;entryPerimeter=0;" edge="1" parent="1" source="12" target="39">
                    <mxGeometry relative="1" as="geometry">
                        <mxPoint x="333" y="204" as="targetPoint"/>
                    </mxGeometry>
                </mxCell>
                <mxCell id="12" value="" style="ellipse;whiteSpace=wrap;html=1;aspect=fixed;fillColor=#000000;rounded=0;" vertex="1" parent="1">
                    <mxGeometry x="238" y="194" width="20" height="20" as="geometry"/>
                </mxCell>
                <mxCell id="39" value="NIL" style="text;html=1;align=center;verticalAlign=middle;resizable=0;points=[];autosize=1;strokeColor=none;fillColor=none;rounded=0;" vertex="1" parent="1">
                    <mxGeometry x="1364" y="189" width="40" height="30" as="geometry"/>
                </mxCell>
                <mxCell id="41" value="NIL" style="text;html=1;align=center;verticalAlign=middle;resizable=0;points=[];autosize=1;strokeColor=none;fillColor=none;rounded=0;" vertex="1" parent="1">
                    <mxGeometry x="498" y="370" width="40" height="30" as="geometry"/>
                </mxCell>
                <mxCell id="45" value="" style="rounded=0;whiteSpace=wrap;html=1;" vertex="1" parent="1">
                    <mxGeometry x="143" y="275" width="70" height="40" as="geometry"/>
                </mxCell>
                <mxCell id="46" value="" style="edgeStyle=none;html=1;rounded=0;" edge="1" parent="1">
                    <mxGeometry relative="1" as="geometry">
                        <mxPoint x="178" y="305" as="sourcePoint"/>
                        <mxPoint x="178" y="365" as="targetPoint"/>
                    </mxGeometry>
                </mxCell>
                <mxCell id="47" value="" style="rounded=0;whiteSpace=wrap;html=1;" vertex="1" parent="1">
                    <mxGeometry x="213" y="275" width="70" height="40" as="geometry"/>
                </mxCell>
                <mxCell id="48" value="" style="edgeStyle=none;html=1;rounded=0;" edge="1" parent="1" source="49">
                    <mxGeometry relative="1" as="geometry">
                        <mxPoint x="552" y="295" as="targetPoint"/>
                    </mxGeometry>
                </mxCell>
                <mxCell id="49" value="" style="ellipse;whiteSpace=wrap;html=1;aspect=fixed;fillColor=#000000;rounded=0;" vertex="1" parent="1">
                    <mxGeometry x="238" y="285" width="20" height="20" as="geometry"/>
                </mxCell>
                <mxCell id="50" value="" style="ellipse;whiteSpace=wrap;html=1;aspect=fixed;fillColor=#000000;rounded=0;" vertex="1" parent="1">
                    <mxGeometry x="168" y="285" width="20" height="20" as="geometry"/>
                </mxCell>
                <mxCell id="53" value="" style="rounded=0;whiteSpace=wrap;html=1;" vertex="1" parent="1">
                    <mxGeometry x="143" y="366" width="70" height="40" as="geometry"/>
                </mxCell>
                <mxCell id="54" value="" style="edgeStyle=none;html=1;rounded=0;" edge="1" parent="1">
                    <mxGeometry relative="1" as="geometry">
                        <mxPoint x="178" y="396" as="sourcePoint"/>
                        <mxPoint x="178" y="456" as="targetPoint"/>
                    </mxGeometry>
                </mxCell>
                <mxCell id="55" value="" style="rounded=0;whiteSpace=wrap;html=1;" vertex="1" parent="1">
                    <mxGeometry x="213" y="366" width="70" height="40" as="geometry"/>
                </mxCell>
                <mxCell id="56" value="" style="edgeStyle=none;html=1;rounded=0;" edge="1" parent="1" source="57">
                    <mxGeometry relative="1" as="geometry">
                        <mxPoint x="333" y="386" as="targetPoint"/>
                    </mxGeometry>
                </mxCell>
                <mxCell id="57" value="" style="ellipse;whiteSpace=wrap;html=1;aspect=fixed;fillColor=#000000;rounded=0;" vertex="1" parent="1">
                    <mxGeometry x="238" y="376" width="20" height="20" as="geometry"/>
                </mxCell>
                <mxCell id="58" value="" style="ellipse;whiteSpace=wrap;html=1;aspect=fixed;fillColor=#000000;rounded=0;" vertex="1" parent="1">
                    <mxGeometry x="168" y="376" width="20" height="20" as="geometry"/>
                </mxCell>
                <mxCell id="59" value="A" style="text;html=1;align=center;verticalAlign=middle;resizable=0;points=[];autosize=1;strokeColor=none;fillColor=none;rounded=0;" vertex="1" parent="1">
                    <mxGeometry x="165" y="453" width="26" height="26" as="geometry"/>
                </mxCell>
                <mxCell id="60" value="" style="rounded=0;whiteSpace=wrap;html=1;" vertex="1" parent="1">
                    <mxGeometry x="333" y="366" width="70" height="40" as="geometry"/>
                </mxCell>
                <mxCell id="61" value="" style="edgeStyle=none;html=1;rounded=0;" edge="1" parent="1">
                    <mxGeometry relative="1" as="geometry">
                        <mxPoint x="368" y="396" as="sourcePoint"/>
                        <mxPoint x="368" y="456" as="targetPoint"/>
                    </mxGeometry>
                </mxCell>
                <mxCell id="62" value="" style="rounded=0;whiteSpace=wrap;html=1;" vertex="1" parent="1">
                    <mxGeometry x="403" y="366" width="70" height="40" as="geometry"/>
                </mxCell>
                <mxCell id="63" value="" style="edgeStyle=none;html=1;rounded=0;" edge="1" parent="1" source="64">
                    <mxGeometry relative="1" as="geometry">
                        <mxPoint x="507" y="386" as="targetPoint"/>
                    </mxGeometry>
                </mxCell>
                <mxCell id="64" value="" style="ellipse;whiteSpace=wrap;html=1;aspect=fixed;fillColor=#000000;rounded=0;" vertex="1" parent="1">
                    <mxGeometry x="428" y="376" width="20" height="20" as="geometry"/>
                </mxCell>
                <mxCell id="65" value="" style="ellipse;whiteSpace=wrap;html=1;aspect=fixed;fillColor=#000000;rounded=0;" vertex="1" parent="1">
                    <mxGeometry x="358" y="376" width="20" height="20" as="geometry"/>
                </mxCell>
                <mxCell id="66" value="B" style="text;html=1;align=center;verticalAlign=middle;resizable=0;points=[];autosize=1;strokeColor=none;fillColor=none;rounded=0;" vertex="1" parent="1">
                    <mxGeometry x="355" y="453" width="26" height="26" as="geometry"/>
                </mxCell>
                <mxCell id="82" value="" style="rounded=0;whiteSpace=wrap;html=1;" vertex="1" parent="1">
                    <mxGeometry x="553" y="275" width="70" height="40" as="geometry"/>
                </mxCell>
                <mxCell id="83" value="" style="edgeStyle=none;html=1;rounded=0;" edge="1" parent="1">
                    <mxGeometry relative="1" as="geometry">
                        <mxPoint x="588" y="305" as="sourcePoint"/>
                        <mxPoint x="588" y="365" as="targetPoint"/>
                    </mxGeometry>
                </mxCell>
                <mxCell id="84" value="" style="rounded=0;whiteSpace=wrap;html=1;" vertex="1" parent="1">
                    <mxGeometry x="623" y="275" width="70" height="40" as="geometry"/>
                </mxCell>
                <mxCell id="85" value="" style="ellipse;whiteSpace=wrap;html=1;aspect=fixed;fillColor=#000000;rounded=0;" vertex="1" parent="1">
                    <mxGeometry x="648" y="285" width="20" height="20" as="geometry"/>
                </mxCell>
                <mxCell id="86" value="" style="ellipse;whiteSpace=wrap;html=1;aspect=fixed;fillColor=#000000;rounded=0;" vertex="1" parent="1">
                    <mxGeometry x="578" y="285" width="20" height="20" as="geometry"/>
                </mxCell>
                <mxCell id="87" value="NIL" style="text;html=1;align=center;verticalAlign=middle;resizable=0;points=[];autosize=1;strokeColor=none;fillColor=none;rounded=0;" vertex="1" parent="1">
                    <mxGeometry x="909" y="371" width="40" height="30" as="geometry"/>
                </mxCell>
                <mxCell id="88" value="" style="rounded=0;whiteSpace=wrap;html=1;" vertex="1" parent="1">
                    <mxGeometry x="553" y="365" width="70" height="40" as="geometry"/>
                </mxCell>
                <mxCell id="89" value="" style="edgeStyle=none;html=1;rounded=0;" edge="1" parent="1">
                    <mxGeometry relative="1" as="geometry">
                        <mxPoint x="588" y="395" as="sourcePoint"/>
                        <mxPoint x="588" y="455" as="targetPoint"/>
                    </mxGeometry>
                </mxCell>
                <mxCell id="90" value="" style="rounded=0;whiteSpace=wrap;html=1;" vertex="1" parent="1">
                    <mxGeometry x="623" y="365" width="70" height="40" as="geometry"/>
                </mxCell>
                <mxCell id="91" value="" style="edgeStyle=none;html=1;rounded=0;" edge="1" parent="1" source="92">
                    <mxGeometry relative="1" as="geometry">
                        <mxPoint x="743" y="385" as="targetPoint"/>
                    </mxGeometry>
                </mxCell>
                <mxCell id="92" value="" style="ellipse;whiteSpace=wrap;html=1;aspect=fixed;fillColor=#000000;rounded=0;" vertex="1" parent="1">
                    <mxGeometry x="648" y="375" width="20" height="20" as="geometry"/>
                </mxCell>
                <mxCell id="93" value="" style="ellipse;whiteSpace=wrap;html=1;aspect=fixed;fillColor=#000000;rounded=0;" vertex="1" parent="1">
                    <mxGeometry x="578" y="375" width="20" height="20" as="geometry"/>
                </mxCell>
                <mxCell id="94" value="C" style="text;html=1;align=center;verticalAlign=middle;resizable=0;points=[];autosize=1;strokeColor=none;fillColor=none;rounded=0;" vertex="1" parent="1">
                    <mxGeometry x="575" y="452" width="27" height="26" as="geometry"/>
                </mxCell>
                <mxCell id="95" value="" style="rounded=0;whiteSpace=wrap;html=1;" vertex="1" parent="1">
                    <mxGeometry x="743" y="365" width="70" height="40" as="geometry"/>
                </mxCell>
                <mxCell id="96" value="" style="edgeStyle=none;html=1;rounded=0;" edge="1" parent="1">
                    <mxGeometry relative="1" as="geometry">
                        <mxPoint x="778" y="395" as="sourcePoint"/>
                        <mxPoint x="778" y="455" as="targetPoint"/>
                    </mxGeometry>
                </mxCell>
                <mxCell id="97" value="" style="rounded=0;whiteSpace=wrap;html=1;" vertex="1" parent="1">
                    <mxGeometry x="813" y="365" width="70" height="40" as="geometry"/>
                </mxCell>
                <mxCell id="99" value="" style="ellipse;whiteSpace=wrap;html=1;aspect=fixed;fillColor=#000000;rounded=0;" vertex="1" parent="1">
                    <mxGeometry x="838" y="375" width="20" height="20" as="geometry"/>
                </mxCell>
                <mxCell id="100" value="" style="ellipse;whiteSpace=wrap;html=1;aspect=fixed;fillColor=#000000;rounded=0;" vertex="1" parent="1">
                    <mxGeometry x="768" y="375" width="20" height="20" as="geometry"/>
                </mxCell>
                <mxCell id="101" value="D" style="text;html=1;align=center;verticalAlign=middle;resizable=0;points=[];autosize=1;strokeColor=none;fillColor=none;rounded=0;" vertex="1" parent="1">
                    <mxGeometry x="765" y="452" width="27" height="26" as="geometry"/>
                </mxCell>
                <mxCell id="108" value="" style="rounded=0;whiteSpace=wrap;html=1;" vertex="1" parent="1">
                    <mxGeometry x="963" y="273" width="70" height="40" as="geometry"/>
                </mxCell>
                <mxCell id="109" value="" style="edgeStyle=none;html=1;rounded=0;" edge="1" parent="1">
                    <mxGeometry relative="1" as="geometry">
                        <mxPoint x="998" y="303" as="sourcePoint"/>
                        <mxPoint x="998" y="363" as="targetPoint"/>
                    </mxGeometry>
                </mxCell>
                <mxCell id="110" value="" style="rounded=0;whiteSpace=wrap;html=1;" vertex="1" parent="1">
                    <mxGeometry x="1033" y="273" width="70" height="40" as="geometry"/>
                </mxCell>
                <mxCell id="111" value="" style="ellipse;whiteSpace=wrap;html=1;aspect=fixed;fillColor=#000000;rounded=0;" vertex="1" parent="1">
                    <mxGeometry x="1058" y="283" width="20" height="20" as="geometry"/>
                </mxCell>
                <mxCell id="112" value="" style="ellipse;whiteSpace=wrap;html=1;aspect=fixed;fillColor=#000000;rounded=0;" vertex="1" parent="1">
                    <mxGeometry x="988" y="283" width="20" height="20" as="geometry"/>
                </mxCell>
                <mxCell id="113" value="NIL" style="text;html=1;align=center;verticalAlign=middle;resizable=0;points=[];autosize=1;strokeColor=none;fillColor=none;rounded=0;" vertex="1" parent="1">
                    <mxGeometry x="1338" y="368" width="40" height="30" as="geometry"/>
                </mxCell>
                <mxCell id="114" value="" style="rounded=0;whiteSpace=wrap;html=1;" vertex="1" parent="1">
                    <mxGeometry x="963" y="363" width="70" height="40" as="geometry"/>
                </mxCell>
                <mxCell id="115" value="" style="edgeStyle=none;html=1;rounded=0;" edge="1" parent="1">
                    <mxGeometry relative="1" as="geometry">
                        <mxPoint x="998" y="393" as="sourcePoint"/>
                        <mxPoint x="998" y="453" as="targetPoint"/>
                    </mxGeometry>
                </mxCell>
                <mxCell id="116" value="" style="rounded=0;whiteSpace=wrap;html=1;" vertex="1" parent="1">
                    <mxGeometry x="1033" y="363" width="70" height="40" as="geometry"/>
                </mxCell>
                <mxCell id="117" value="" style="edgeStyle=none;html=1;rounded=0;" edge="1" parent="1" source="118">
                    <mxGeometry relative="1" as="geometry">
                        <mxPoint x="1153" y="383" as="targetPoint"/>
                    </mxGeometry>
                </mxCell>
                <mxCell id="118" value="" style="ellipse;whiteSpace=wrap;html=1;aspect=fixed;fillColor=#000000;rounded=0;" vertex="1" parent="1">
                    <mxGeometry x="1058" y="373" width="20" height="20" as="geometry"/>
                </mxCell>
                <mxCell id="119" value="" style="ellipse;whiteSpace=wrap;html=1;aspect=fixed;fillColor=#000000;rounded=0;" vertex="1" parent="1">
                    <mxGeometry x="988" y="373" width="20" height="20" as="geometry"/>
                </mxCell>
                <mxCell id="120" value="E" style="text;html=1;align=center;verticalAlign=middle;resizable=0;points=[];autosize=1;strokeColor=none;fillColor=none;rounded=0;" vertex="1" parent="1">
                    <mxGeometry x="986" y="450" width="26" height="26" as="geometry"/>
                </mxCell>
                <mxCell id="121" value="" style="rounded=0;whiteSpace=wrap;html=1;" vertex="1" parent="1">
                    <mxGeometry x="1153" y="363" width="70" height="40" as="geometry"/>
                </mxCell>
                <mxCell id="122" value="" style="edgeStyle=none;html=1;rounded=0;" edge="1" parent="1">
                    <mxGeometry relative="1" as="geometry">
                        <mxPoint x="1188" y="393" as="sourcePoint"/>
                        <mxPoint x="1188" y="453" as="targetPoint"/>
                    </mxGeometry>
                </mxCell>
                <mxCell id="123" value="" style="rounded=0;whiteSpace=wrap;html=1;" vertex="1" parent="1">
                    <mxGeometry x="1223" y="363" width="70" height="40" as="geometry"/>
                </mxCell>
                <mxCell id="124" value="" style="edgeStyle=none;html=1;rounded=0;" edge="1" parent="1" source="125">
                    <mxGeometry relative="1" as="geometry">
                        <mxPoint x="1343" y="383" as="targetPoint"/>
                    </mxGeometry>
                </mxCell>
                <mxCell id="125" value="" style="ellipse;whiteSpace=wrap;html=1;aspect=fixed;fillColor=#000000;rounded=0;" vertex="1" parent="1">
                    <mxGeometry x="1248" y="373" width="20" height="20" as="geometry"/>
                </mxCell>
                <mxCell id="126" value="" style="ellipse;whiteSpace=wrap;html=1;aspect=fixed;fillColor=#000000;rounded=0;" vertex="1" parent="1">
                    <mxGeometry x="1178" y="373" width="20" height="20" as="geometry"/>
                </mxCell>
                <mxCell id="127" value="F" style="text;html=1;align=center;verticalAlign=middle;resizable=0;points=[];autosize=1;strokeColor=none;fillColor=none;rounded=0;" vertex="1" parent="1">
                    <mxGeometry x="1176" y="450" width="25" height="26" as="geometry"/>
                </mxCell>
                <mxCell id="129" value="" style="edgeStyle=none;html=1;rounded=0;" edge="1" parent="1">
                    <mxGeometry relative="1" as="geometry">
                        <mxPoint x="1153" y="292.5" as="targetPoint"/>
                        <mxPoint x="1078" y="292.5" as="sourcePoint"/>
                    </mxGeometry>
                </mxCell>
                <mxCell id="130" value="NIL" style="text;html=1;align=center;verticalAlign=middle;resizable=0;points=[];autosize=1;strokeColor=none;fillColor=none;rounded=0;" vertex="1" parent="1">
                    <mxGeometry x="1149" y="278" width="40" height="30" as="geometry"/>
                </mxCell>
                <mxCell id="134" value="" style="edgeStyle=none;html=1;rounded=0;" edge="1" parent="1">
                    <mxGeometry relative="1" as="geometry">
                        <mxPoint x="917" y="385.58" as="targetPoint"/>
                        <mxPoint x="858" y="385.58" as="sourcePoint"/>
                    </mxGeometry>
                </mxCell>
                <mxCell id="135" value="" style="edgeStyle=none;html=1;rounded=0;" edge="1" parent="1">
                    <mxGeometry relative="1" as="geometry">
                        <mxPoint x="962" y="294.58" as="targetPoint"/>
                        <mxPoint x="668" y="294.58" as="sourcePoint"/>
                    </mxGeometry>
                </mxCell>
                <mxCell id="136" value="Input de CAR" style="text;html=1;align=center;verticalAlign=middle;resizable=0;points=[];autosize=1;strokeColor=none;fillColor=none;rounded=0;" vertex="1" parent="1">
                    <mxGeometry x="17" y="146" width="90" height="26" as="geometry"/>
                </mxCell>
                <mxCell id="138" value="Output de CAR" style="text;html=1;align=center;verticalAlign=middle;resizable=0;points=[];autosize=1;strokeColor=none;fillColor=none;rounded=0;" vertex="1" parent="1">
                    <mxGeometry x="17" y="241" width="99" height="26" as="geometry"/>
                </mxCell>
                <mxCell id="140" value="Output de CDR" style="text;html=1;align=center;verticalAlign=middle;resizable=0;points=[];autosize=1;strokeColor=none;fillColor=none;rounded=0;" vertex="1" parent="1">
                    <mxGeometry x="420" y="228.81" width="100" height="26" as="geometry"/>
                </mxCell>
                <mxCell id="142" value="Output de CDR" style="text;html=1;align=center;verticalAlign=middle;resizable=0;points=[];autosize=1;strokeColor=none;fillColor=none;rounded=0;" vertex="1" parent="1">
                    <mxGeometry x="833" y="227.61" width="100" height="26" as="geometry"/>
                </mxCell>
            </root>
        </mxGraphModel>
    </diagram>
</mxfile>